HLS 스트림 생성 시작: Mon Sep  1 18:07:34 KST 2025
처리 중: mil00.mp4
ffmpeg version 4.4.2-0ubuntu0.22.04.1 Copyright (c) 2000-2021 the FFmpeg developers
  built with gcc 11 (Ubuntu 11.2.0-19ubuntu1)
  configuration: --prefix=/usr --extra-version=0ubuntu0.22.04.1 --toolchain=hardened --libdir=/usr/lib/x86_64-linux-gnu --incdir=/usr/include/x86_64-linux-gnu --arch=amd64 --enable-gpl --disable-stripping --enable-gnutls --enable-ladspa --enable-libaom --enable-libass --enable-libbluray --enable-libbs2b --enable-libcaca --enable-libcdio --enable-libcodec2 --enable-libdav1d --enable-libflite --enable-libfontconfig --enable-libfreetype --enable-libfribidi --enable-libgme --enable-libgsm --enable-libjack --enable-libmp3lame --enable-libmysofa --enable-libopenjpeg --enable-libopenmpt --enable-libopus --enable-libpulse --enable-librabbitmq --enable-librubberband --enable-libshine --enable-libsnappy --enable-libsoxr --enable-libspeex --enable-libsrt --enable-libssh --enable-libtheora --enable-libtwolame --enable-libvidstab --enable-libvorbis --enable-libvpx --enable-libwebp --enable-libx265 --enable-libxml2 --enable-libxvid --enable-libzimg --enable-libzmq --enable-libzvbi --enable-lv2 --enable-omx --enable-openal --enable-opencl --enable-opengl --enable-sdl2 --enable-pocketsphinx --enable-librsvg --enable-libmfx --enable-libdc1394 --enable-libdrm --enable-libiec61883 --enable-chromaprint --enable-frei0r --enable-libx264 --enable-shared
  libavutil      56. 70.100 / 56. 70.100
  libavcodec     58.134.100 / 58.134.100
  libavformat    58. 76.100 / 58. 76.100
  libavdevice    58. 13.100 / 58. 13.100
  libavfilter     7.110.100 /  7.110.100
  libswscale      5.  9.100 /  5.  9.100
  libswresample   3.  9.100 /  3.  9.100
  libpostproc    55.  9.100 / 55.  9.100
Input #0, mov,mp4,m4a,3gp,3g2,mj2, from '/opt/mediaserver/media/mil00.mp4':
  Metadata:
    major_brand     : mp42
    minor_version   : 0
    compatible_brands: mp42mp41isomavc1
    creation_time   : 2020-09-01T06:05:15.000000Z
  Duration: 00:00:09.52, start: 0.000000, bitrate: 5205 kb/s
  Stream #0:0(und): Video: h264 (High) (avc1 / 0x31637661), yuv420p(tv, bt709), 1920x1080, 5202 kb/s, 25 fps, 25 tbr, 25 tbn, 50 tbc (default)
    Metadata:
      creation_time   : 2020-09-01T06:05:15.000000Z
      handler_name    : L-SMASH Video Handler
      vendor_id       : [0][0][0][0]
      encoder         : AVC Coding
Stream mapping:
  Stream #0:0 -> #0:0 (h264 (native) -> h264 (libx264))
Press [q] to stop, [?] for help
[libx264 @ 0x64fa2f2c7a80] using cpu capabilities: MMX2 SSE2Fast SSSE3 SSE4.2 AVX FMA3 BMI2 AVX2 AVX512
[libx264 @ 0x64fa2f2c7a80] profile Constrained Baseline, level 4.0, 4:2:0, 8-bit
[libx264 @ 0x64fa2f2c7a80] 264 - core 163 r3060 5db6aa6 - H.264/MPEG-4 AVC codec - Copyleft 2003-2021 - http://www.videolan.org/x264.html - options: cabac=0 ref=1 deblock=0:0:0 analyse=0:0 me=dia subme=0 psy=1 psy_rd=1.00:0.00 mixed_ref=0 me_range=16 chroma_me=1 trellis=0 8x8dct=0 cqm=0 deadzone=21,11 fast_pskip=1 chroma_qp_offset=0 threads=34 lookahead_threads=5 sliced_threads=0 nr=0 decimate=1 interlaced=0 bluray_compat=0 constrained_intra=0 bframes=0 weightp=0 keyint=250 keyint_min=25 scenecut=0 intra_refresh=0 rc=crf mbtree=0 crf=23.0 qcomp=0.60 qpmin=0 qpmax=69 qpstep=4 ip_ratio=1.40 aq=0
Output #0, mp4, to '/opt/mediaserver/temp/mil00.mp4':
  Metadata:
    major_brand     : mp42
    minor_version   : 0
    compatible_brands: mp42mp41isomavc1
    encoder         : Lavf58.76.100
  Stream #0:0(und): Video: h264 (avc1 / 0x31637661), yuv420p(tv, bt709, progressive), 1920x1080, q=2-31, 25 fps, 12800 tbn (default)
    Metadata:
      creation_time   : 2020-09-01T06:05:15.000000Z
      handler_name    : L-SMASH Video Handler
      vendor_id       : [0][0][0][0]
      encoder         : Lavc58.134.100 libx264
    Side data:
      cpb: bitrate max/min/avg: 0/0/0 buffer size: 0 vbv_delay: N/A
frame=    1 fps=0.0 q=0.0 size=       0kB time=00:00:00.00 bitrate=N/A speed=   0x    frame=  238 fps=0.0 q=-1.0 Lsize=    4717kB time=00:00:09.48 bitrate=4076.5kbits/s speed=16.6x    
video:4716kB audio:0kB subtitle:0kB other streams:0kB global headers:0kB muxing overhead: 0.039016%
[libx264 @ 0x64fa2f2c7a80] frame I:1     Avg QP:20.00  size: 87376
[libx264 @ 0x64fa2f2c7a80] frame P:237   Avg QP:20.48  size: 20003
[libx264 @ 0x64fa2f2c7a80] mb I  I16..4: 100.0%  0.0%  0.0%
[libx264 @ 0x64fa2f2c7a80] mb P  I16..4:  9.0%  0.0%  0.0%  P16..4: 31.4%  0.0%  0.0%  0.0%  0.0%    skip:59.6%
[libx264 @ 0x64fa2f2c7a80] coded y,uvDC,uvAC intra: 8.2% 17.4% 0.2% inter: 10.8% 7.3% 0.0%
[libx264 @ 0x64fa2f2c7a80] i16 v,h,dc,p: 43% 24% 17% 16%
[libx264 @ 0x64fa2f2c7a80] i8c dc,h,v,p: 62% 16% 17%  5%
[libx264 @ 0x64fa2f2c7a80] kb/s:4057.29
처리 중: mil01.mp4
ffmpeg version 4.4.2-0ubuntu0.22.04.1 Copyright (c) 2000-2021 the FFmpeg developers
  built with gcc 11 (Ubuntu 11.2.0-19ubuntu1)
  configuration: --prefix=/usr --extra-version=0ubuntu0.22.04.1 --toolchain=hardened --libdir=/usr/lib/x86_64-linux-gnu --incdir=/usr/include/x86_64-linux-gnu --arch=amd64 --enable-gpl --disable-stripping --enable-gnutls --enable-ladspa --enable-libaom --enable-libass --enable-libbluray --enable-libbs2b --enable-libcaca --enable-libcdio --enable-libcodec2 --enable-libdav1d --enable-libflite --enable-libfontconfig --enable-libfreetype --enable-libfribidi --enable-libgme --enable-libgsm --enable-libjack --enable-libmp3lame --enable-libmysofa --enable-libopenjpeg --enable-libopenmpt --enable-libopus --enable-libpulse --enable-librabbitmq --enable-librubberband --enable-libshine --enable-libsnappy --enable-libsoxr --enable-libspeex --enable-libsrt --enable-libssh --enable-libtheora --enable-libtwolame --enable-libvidstab --enable-libvorbis --enable-libvpx --enable-libwebp --enable-libx265 --enable-libxml2 --enable-libxvid --enable-libzimg --enable-libzmq --enable-libzvbi --enable-lv2 --enable-omx --enable-openal --enable-opencl --enable-opengl --enable-sdl2 --enable-pocketsphinx --enable-librsvg --enable-libmfx --enable-libdc1394 --enable-libdrm --enable-libiec61883 --enable-chromaprint --enable-frei0r --enable-libx264 --enable-shared
  libavutil      56. 70.100 / 56. 70.100
  libavcodec     58.134.100 / 58.134.100
  libavformat    58. 76.100 / 58. 76.100
  libavdevice    58. 13.100 / 58. 13.100
  libavfilter     7.110.100 /  7.110.100
  libswscale      5.  9.100 /  5.  9.100
  libswresample   3.  9.100 /  3.  9.100
  libpostproc    55.  9.100 / 55.  9.100
Input #0, mov,mp4,m4a,3gp,3g2,mj2, from '/opt/mediaserver/media/mil01.mp4':
  Metadata:
    major_brand     : mp42
    minor_version   : 0
    compatible_brands: mp42mp41isomavc1
    creation_time   : 2020-12-05T17:48:36.000000Z
  Duration: 00:00:12.68, start: 0.000000, bitrate: 3706 kb/s
  Stream #0:0(und): Video: h264 (High) (avc1 / 0x31637661), yuv420p(tv, bt709), 2560x1440, 3703 kb/s, 25 fps, 25 tbr, 25 tbn, 50 tbc (default)
    Metadata:
      creation_time   : 2020-12-05T17:48:36.000000Z
      handler_name    : L-SMASH Video Handler
      vendor_id       : [0][0][0][0]
      encoder         : AVC Coding
Stream mapping:
  Stream #0:0 -> #0:0 (h264 (native) -> h264 (libx264))
Press [q] to stop, [?] for help
[libx264 @ 0x64ab65ab2780] using cpu capabilities: MMX2 SSE2Fast SSSE3 SSE4.2 AVX FMA3 BMI2 AVX2 AVX512
[libx264 @ 0x64ab65ab2780] profile Constrained Baseline, level 5.0, 4:2:0, 8-bit
[libx264 @ 0x64ab65ab2780] 264 - core 163 r3060 5db6aa6 - H.264/MPEG-4 AVC codec - Copyleft 2003-2021 - http://www.videolan.org/x264.html - options: cabac=0 ref=1 deblock=0:0:0 analyse=0:0 me=dia subme=0 psy=1 psy_rd=1.00:0.00 mixed_ref=0 me_range=16 chroma_me=1 trellis=0 8x8dct=0 cqm=0 deadzone=21,11 fast_pskip=1 chroma_qp_offset=0 threads=45 lookahead_threads=7 sliced_threads=0 nr=0 decimate=1 interlaced=0 bluray_compat=0 constrained_intra=0 bframes=0 weightp=0 keyint=250 keyint_min=25 scenecut=0 intra_refresh=0 rc=crf mbtree=0 crf=23.0 qcomp=0.60 qpmin=0 qpmax=69 qpstep=4 ip_ratio=1.40 aq=0
Output #0, mp4, to '/opt/mediaserver/temp/mil01.mp4':
  Metadata:
    major_brand     : mp42
    minor_version   : 0
    compatible_brands: mp42mp41isomavc1
    encoder         : Lavf58.76.100
  Stream #0:0(und): Video: h264 (avc1 / 0x31637661), yuv420p(tv, bt709, progressive), 2560x1440, q=2-31, 25 fps, 12800 tbn (default)
    Metadata:
      creation_time   : 2020-12-05T17:48:36.000000Z
      handler_name    : L-SMASH Video Handler
      vendor_id       : [0][0][0][0]
      encoder         : Lavc58.134.100 libx264
    Side data:
      cpb: bitrate max/min/avg: 0/0/0 buffer size: 0 vbv_delay: N/A
frame=    1 fps=0.0 q=0.0 size=       0kB time=00:00:00.00 bitrate=N/A speed=   0x    frame=  152 fps=0.0 q=19.0 size=    2560kB time=00:00:04.20 bitrate=4993.2kbits/s speed=7.05x    frame=  317 fps=308 q=-1.0 Lsize=    8271kB time=00:00:12.64 bitrate=5360.1kbits/s speed=12.3x    
video:8268kB audio:0kB subtitle:0kB other streams:0kB global headers:0kB muxing overhead: 0.026775%
[libx264 @ 0x64ab65ab2780] frame I:2     Avg QP:18.00  size:175772
[libx264 @ 0x64ab65ab2780] frame P:315   Avg QP:19.52  size: 25761
[libx264 @ 0x64ab65ab2780] mb I  I16..4: 100.0%  0.0%  0.0%
[libx264 @ 0x64ab65ab2780] mb P  I16..4:  4.1%  0.0%  0.0%  P16..4: 36.2%  0.0%  0.0%  0.0%  0.0%    skip:59.7%
[libx264 @ 0x64ab65ab2780] coded y,uvDC,uvAC intra: 18.5% 39.1% 3.8% inter: 8.0% 14.8% 0.1%
[libx264 @ 0x64ab65ab2780] i16 v,h,dc,p: 41% 23% 19% 17%
[libx264 @ 0x64ab65ab2780] i8c dc,h,v,p: 41% 23% 28%  8%
[libx264 @ 0x64ab65ab2780] kb/s:5341.46
처리 중: mil02.mp4
ffmpeg version 4.4.2-0ubuntu0.22.04.1 Copyright (c) 2000-2021 the FFmpeg developers
  built with gcc 11 (Ubuntu 11.2.0-19ubuntu1)
  configuration: --prefix=/usr --extra-version=0ubuntu0.22.04.1 --toolchain=hardened --libdir=/usr/lib/x86_64-linux-gnu --incdir=/usr/include/x86_64-linux-gnu --arch=amd64 --enable-gpl --disable-stripping --enable-gnutls --enable-ladspa --enable-libaom --enable-libass --enable-libbluray --enable-libbs2b --enable-libcaca --enable-libcdio --enable-libcodec2 --enable-libdav1d --enable-libflite --enable-libfontconfig --enable-libfreetype --enable-libfribidi --enable-libgme --enable-libgsm --enable-libjack --enable-libmp3lame --enable-libmysofa --enable-libopenjpeg --enable-libopenmpt --enable-libopus --enable-libpulse --enable-librabbitmq --enable-librubberband --enable-libshine --enable-libsnappy --enable-libsoxr --enable-libspeex --enable-libsrt --enable-libssh --enable-libtheora --enable-libtwolame --enable-libvidstab --enable-libvorbis --enable-libvpx --enable-libwebp --enable-libx265 --enable-libxml2 --enable-libxvid --enable-libzimg --enable-libzmq --enable-libzvbi --enable-lv2 --enable-omx --enable-openal --enable-opencl --enable-opengl --enable-sdl2 --enable-pocketsphinx --enable-librsvg --enable-libmfx --enable-libdc1394 --enable-libdrm --enable-libiec61883 --enable-chromaprint --enable-frei0r --enable-libx264 --enable-shared
  libavutil      56. 70.100 / 56. 70.100
  libavcodec     58.134.100 / 58.134.100
  libavformat    58. 76.100 / 58. 76.100
  libavdevice    58. 13.100 / 58. 13.100
  libavfilter     7.110.100 /  7.110.100
  libswscale      5.  9.100 /  5.  9.100
  libswresample   3.  9.100 /  3.  9.100
  libpostproc    55.  9.100 / 55.  9.100
Input #0, mov,mp4,m4a,3gp,3g2,mj2, from '/opt/mediaserver/media/mil02.mp4':
  Metadata:
    major_brand     : mp42
    minor_version   : 0
    compatible_brands: mp42mp41isomavc1
    creation_time   : 2020-09-01T06:12:23.000000Z
  Duration: 00:00:11.28, start: 0.000000, bitrate: 4006 kb/s
  Stream #0:0(und): Video: h264 (High) (avc1 / 0x31637661), yuv420p(tv, bt709), 1920x1080, 4003 kb/s, 25 fps, 25 tbr, 25 tbn, 50 tbc (default)
    Metadata:
      creation_time   : 2020-09-01T06:12:23.000000Z
      handler_name    : L-SMASH Video Handler
      vendor_id       : [0][0][0][0]
      encoder         : AVC Coding
Stream mapping:
  Stream #0:0 -> #0:0 (h264 (native) -> h264 (libx264))
Press [q] to stop, [?] for help
[libx264 @ 0x616fcf8e4680] using cpu capabilities: MMX2 SSE2Fast SSSE3 SSE4.2 AVX FMA3 BMI2 AVX2 AVX512
[libx264 @ 0x616fcf8e4680] profile Constrained Baseline, level 4.0, 4:2:0, 8-bit
[libx264 @ 0x616fcf8e4680] 264 - core 163 r3060 5db6aa6 - H.264/MPEG-4 AVC codec - Copyleft 2003-2021 - http://www.videolan.org/x264.html - options: cabac=0 ref=1 deblock=0:0:0 analyse=0:0 me=dia subme=0 psy=1 psy_rd=1.00:0.00 mixed_ref=0 me_range=16 chroma_me=1 trellis=0 8x8dct=0 cqm=0 deadzone=21,11 fast_pskip=1 chroma_qp_offset=0 threads=34 lookahead_threads=5 sliced_threads=0 nr=0 decimate=1 interlaced=0 bluray_compat=0 constrained_intra=0 bframes=0 weightp=0 keyint=250 keyint_min=25 scenecut=0 intra_refresh=0 rc=crf mbtree=0 crf=23.0 qcomp=0.60 qpmin=0 qpmax=69 qpstep=4 ip_ratio=1.40 aq=0
Output #0, mp4, to '/opt/mediaserver/temp/mil02.mp4':
  Metadata:
    major_brand     : mp42
    minor_version   : 0
    compatible_brands: mp42mp41isomavc1
    encoder         : Lavf58.76.100
  Stream #0:0(und): Video: h264 (avc1 / 0x31637661), yuv420p(tv, bt709, progressive), 1920x1080, q=2-31, 25 fps, 12800 tbn (default)
    Metadata:
      creation_time   : 2020-09-01T06:12:23.000000Z
      handler_name    : L-SMASH Video Handler
      vendor_id       : [0][0][0][0]
      encoder         : Lavc58.134.100 libx264
    Side data:
      cpb: bitrate max/min/avg: 0/0/0 buffer size: 0 vbv_delay: N/A
frame=    1 fps=0.0 q=0.0 size=       0kB time=00:00:00.00 bitrate=N/A speed=   0x    frame=  259 fps=0.0 q=20.0 size=    4096kB time=00:00:08.92 bitrate=3761.7kbits/s speed=16.1x    frame=  282 fps=0.0 q=-1.0 Lsize=    5113kB time=00:00:11.24 bitrate=3726.4kbits/s speed=18.2x    
video:5111kB audio:0kB subtitle:0kB other streams:0kB global headers:0kB muxing overhead: 0.039514%
[libx264 @ 0x616fcf8e4680] frame I:2     Avg QP:19.00  size: 68190
[libx264 @ 0x616fcf8e4680] frame P:280   Avg QP:20.61  size: 18202
[libx264 @ 0x616fcf8e4680] mb I  I16..4: 100.0%  0.0%  0.0%
[libx264 @ 0x616fcf8e4680] mb P  I16..4: 14.7%  0.0%  0.0%  P16..4: 47.2%  0.0%  0.0%  0.0%  0.0%    skip:38.2%
[libx264 @ 0x616fcf8e4680] coded y,uvDC,uvAC intra: 7.0% 25.0% 0.2% inter: 11.1% 17.8% 0.0%
[libx264 @ 0x616fcf8e4680] i16 v,h,dc,p: 21% 30% 22% 27%
[libx264 @ 0x616fcf8e4680] i8c dc,h,v,p: 50% 24% 19%  7%
[libx264 @ 0x616fcf8e4680] kb/s:3711.29
처리 중: mil03.mp4
ffmpeg version 4.4.2-0ubuntu0.22.04.1 Copyright (c) 2000-2021 the FFmpeg developers
  built with gcc 11 (Ubuntu 11.2.0-19ubuntu1)
  configuration: --prefix=/usr --extra-version=0ubuntu0.22.04.1 --toolchain=hardened --libdir=/usr/lib/x86_64-linux-gnu --incdir=/usr/include/x86_64-linux-gnu --arch=amd64 --enable-gpl --disable-stripping --enable-gnutls --enable-ladspa --enable-libaom --enable-libass --enable-libbluray --enable-libbs2b --enable-libcaca --enable-libcdio --enable-libcodec2 --enable-libdav1d --enable-libflite --enable-libfontconfig --enable-libfreetype --enable-libfribidi --enable-libgme --enable-libgsm --enable-libjack --enable-libmp3lame --enable-libmysofa --enable-libopenjpeg --enable-libopenmpt --enable-libopus --enable-libpulse --enable-librabbitmq --enable-librubberband --enable-libshine --enable-libsnappy --enable-libsoxr --enable-libspeex --enable-libsrt --enable-libssh --enable-libtheora --enable-libtwolame --enable-libvidstab --enable-libvorbis --enable-libvpx --enable-libwebp --enable-libx265 --enable-libxml2 --enable-libxvid --enable-libzimg --enable-libzmq --enable-libzvbi --enable-lv2 --enable-omx --enable-openal --enable-opencl --enable-opengl --enable-sdl2 --enable-pocketsphinx --enable-librsvg --enable-libmfx --enable-libdc1394 --enable-libdrm --enable-libiec61883 --enable-chromaprint --enable-frei0r --enable-libx264 --enable-shared
  libavutil      56. 70.100 / 56. 70.100
  libavcodec     58.134.100 / 58.134.100
  libavformat    58. 76.100 / 58. 76.100
  libavdevice    58. 13.100 / 58. 13.100
  libavfilter     7.110.100 /  7.110.100
  libswscale      5.  9.100 /  5.  9.100
  libswresample   3.  9.100 /  3.  9.100
  libpostproc    55.  9.100 / 55.  9.100
Input #0, mov,mp4,m4a,3gp,3g2,mj2, from '/opt/mediaserver/media/mil03.mp4':
  Metadata:
    major_brand     : mp42
    minor_version   : 0
    compatible_brands: mp42mp41isomavc1
    creation_time   : 2020-12-05T17:47:38.000000Z
  Duration: 00:00:13.12, start: 0.000000, bitrate: 5161 kb/s
  Stream #0:0(und): Video: h264 (High) (avc1 / 0x31637661), yuv420p(tv, bt709), 2560x1440, 5158 kb/s, 25 fps, 25 tbr, 25 tbn, 50 tbc (default)
    Metadata:
      creation_time   : 2020-12-05T17:47:38.000000Z
      handler_name    : L-SMASH Video Handler
      vendor_id       : [0][0][0][0]
      encoder         : AVC Coding
Stream mapping:
  Stream #0:0 -> #0:0 (h264 (native) -> h264 (libx264))
Press [q] to stop, [?] for help
[libx264 @ 0x60d32928bfc0] using cpu capabilities: MMX2 SSE2Fast SSSE3 SSE4.2 AVX FMA3 BMI2 AVX2 AVX512
[libx264 @ 0x60d32928bfc0] profile Constrained Baseline, level 5.0, 4:2:0, 8-bit
[libx264 @ 0x60d32928bfc0] 264 - core 163 r3060 5db6aa6 - H.264/MPEG-4 AVC codec - Copyleft 2003-2021 - http://www.videolan.org/x264.html - options: cabac=0 ref=1 deblock=0:0:0 analyse=0:0 me=dia subme=0 psy=1 psy_rd=1.00:0.00 mixed_ref=0 me_range=16 chroma_me=1 trellis=0 8x8dct=0 cqm=0 deadzone=21,11 fast_pskip=1 chroma_qp_offset=0 threads=45 lookahead_threads=7 sliced_threads=0 nr=0 decimate=1 interlaced=0 bluray_compat=0 constrained_intra=0 bframes=0 weightp=0 keyint=250 keyint_min=25 scenecut=0 intra_refresh=0 rc=crf mbtree=0 crf=23.0 qcomp=0.60 qpmin=0 qpmax=69 qpstep=4 ip_ratio=1.40 aq=0
Output #0, mp4, to '/opt/mediaserver/temp/mil03.mp4':
  Metadata:
    major_brand     : mp42
    minor_version   : 0
    compatible_brands: mp42mp41isomavc1
    encoder         : Lavf58.76.100
  Stream #0:0(und): Video: h264 (avc1 / 0x31637661), yuv420p(tv, bt709, progressive), 2560x1440, q=2-31, 25 fps, 12800 tbn (default)
    Metadata:
      creation_time   : 2020-12-05T17:47:38.000000Z
      handler_name    : L-SMASH Video Handler
      vendor_id       : [0][0][0][0]
      encoder         : Lavc58.134.100 libx264
    Side data:
      cpb: bitrate max/min/avg: 0/0/0 buffer size: 0 vbv_delay: N/A
frame=    1 fps=0.0 q=0.0 size=       0kB time=00:00:00.00 bitrate=N/A speed=   0x    frame=  138 fps=0.0 q=21.0 size=    2304kB time=00:00:03.64 bitrate=5185.3kbits/s speed=6.16x    frame=  328 fps=313 q=-1.0 Lsize=    8466kB time=00:00:13.08 bitrate=5302.1kbits/s speed=12.5x    
video:8464kB audio:0kB subtitle:0kB other streams:0kB global headers:0kB muxing overhead: 0.026527%
[libx264 @ 0x60d32928bfc0] frame I:2     Avg QP:18.50  size: 72452
[libx264 @ 0x60d32928bfc0] frame P:326   Avg QP:20.08  size: 26139
[libx264 @ 0x60d32928bfc0] mb I  I16..4: 100.0%  0.0%  0.0%
[libx264 @ 0x60d32928bfc0] mb P  I16..4: 19.3%  0.0%  0.0%  P16..4: 25.5%  0.0%  0.0%  0.0%  0.0%    skip:55.2%
[libx264 @ 0x60d32928bfc0] coded y,uvDC,uvAC intra: 5.7% 34.6% 0.6% inter: 6.2% 14.3% 0.0%
[libx264 @ 0x60d32928bfc0] i16 v,h,dc,p: 40% 24% 12% 24%
[libx264 @ 0x60d32928bfc0] i8c dc,h,v,p: 46% 26% 22%  6%
[libx264 @ 0x60d32928bfc0] kb/s:5284.22
처리 중: mil04.mp4
ffmpeg version 4.4.2-0ubuntu0.22.04.1 Copyright (c) 2000-2021 the FFmpeg developers
  built with gcc 11 (Ubuntu 11.2.0-19ubuntu1)
  configuration: --prefix=/usr --extra-version=0ubuntu0.22.04.1 --toolchain=hardened --libdir=/usr/lib/x86_64-linux-gnu --incdir=/usr/include/x86_64-linux-gnu --arch=amd64 --enable-gpl --disable-stripping --enable-gnutls --enable-ladspa --enable-libaom --enable-libass --enable-libbluray --enable-libbs2b --enable-libcaca --enable-libcdio --enable-libcodec2 --enable-libdav1d --enable-libflite --enable-libfontconfig --enable-libfreetype --enable-libfribidi --enable-libgme --enable-libgsm --enable-libjack --enable-libmp3lame --enable-libmysofa --enable-libopenjpeg --enable-libopenmpt --enable-libopus --enable-libpulse --enable-librabbitmq --enable-librubberband --enable-libshine --enable-libsnappy --enable-libsoxr --enable-libspeex --enable-libsrt --enable-libssh --enable-libtheora --enable-libtwolame --enable-libvidstab --enable-libvorbis --enable-libvpx --enable-libwebp --enable-libx265 --enable-libxml2 --enable-libxvid --enable-libzimg --enable-libzmq --enable-libzvbi --enable-lv2 --enable-omx --enable-openal --enable-opencl --enable-opengl --enable-sdl2 --enable-pocketsphinx --enable-librsvg --enable-libmfx --enable-libdc1394 --enable-libdrm --enable-libiec61883 --enable-chromaprint --enable-frei0r --enable-libx264 --enable-shared
  libavutil      56. 70.100 / 56. 70.100
  libavcodec     58.134.100 / 58.134.100
  libavformat    58. 76.100 / 58. 76.100
  libavdevice    58. 13.100 / 58. 13.100
  libavfilter     7.110.100 /  7.110.100
  libswscale      5.  9.100 /  5.  9.100
  libswresample   3.  9.100 /  3.  9.100
  libpostproc    55.  9.100 / 55.  9.100
Input #0, mov,mp4,m4a,3gp,3g2,mj2, from '/opt/mediaserver/media/mil04.mp4':
  Metadata:
    major_brand     : mp42
    minor_version   : 0
    compatible_brands: mp42mp41isomavc1
    creation_time   : 2020-12-05T16:31:21.000000Z
  Duration: 00:00:14.24, start: 0.000000, bitrate: 2811 kb/s
  Stream #0:0(und): Video: h264 (High) (avc1 / 0x31637661), yuv420p(tv, bt709), 2560x1440, 2808 kb/s, 25 fps, 25 tbr, 25 tbn, 50 tbc (default)
    Metadata:
      creation_time   : 2020-12-05T16:31:21.000000Z
      handler_name    : L-SMASH Video Handler
      vendor_id       : [0][0][0][0]
      encoder         : AVC Coding
Stream mapping:
  Stream #0:0 -> #0:0 (h264 (native) -> h264 (libx264))
Press [q] to stop, [?] for help
[libx264 @ 0x56c33a8e0fc0] using cpu capabilities: MMX2 SSE2Fast SSSE3 SSE4.2 AVX FMA3 BMI2 AVX2 AVX512
[libx264 @ 0x56c33a8e0fc0] profile Constrained Baseline, level 5.0, 4:2:0, 8-bit
[libx264 @ 0x56c33a8e0fc0] 264 - core 163 r3060 5db6aa6 - H.264/MPEG-4 AVC codec - Copyleft 2003-2021 - http://www.videolan.org/x264.html - options: cabac=0 ref=1 deblock=0:0:0 analyse=0:0 me=dia subme=0 psy=1 psy_rd=1.00:0.00 mixed_ref=0 me_range=16 chroma_me=1 trellis=0 8x8dct=0 cqm=0 deadzone=21,11 fast_pskip=1 chroma_qp_offset=0 threads=45 lookahead_threads=7 sliced_threads=0 nr=0 decimate=1 interlaced=0 bluray_compat=0 constrained_intra=0 bframes=0 weightp=0 keyint=250 keyint_min=25 scenecut=0 intra_refresh=0 rc=crf mbtree=0 crf=23.0 qcomp=0.60 qpmin=0 qpmax=69 qpstep=4 ip_ratio=1.40 aq=0
Output #0, mp4, to '/opt/mediaserver/temp/mil04.mp4':
  Metadata:
    major_brand     : mp42
    minor_version   : 0
    compatible_brands: mp42mp41isomavc1
    encoder         : Lavf58.76.100
  Stream #0:0(und): Video: h264 (avc1 / 0x31637661), yuv420p(tv, bt709, progressive), 2560x1440, q=2-31, 25 fps, 12800 tbn (default)
    Metadata:
      creation_time   : 2020-12-05T16:31:21.000000Z
      handler_name    : L-SMASH Video Handler
      vendor_id       : [0][0][0][0]
      encoder         : Lavc58.134.100 libx264
    Side data:
      cpb: bitrate max/min/avg: 0/0/0 buffer size: 0 vbv_delay: N/A
frame=    1 fps=0.0 q=0.0 size=       0kB time=00:00:00.00 bitrate=N/A speed=   0x    frame=  155 fps=0.0 q=20.0 size=    3072kB time=00:00:04.32 bitrate=5825.4kbits/s speed=7.42x    frame=  356 fps=331 q=-1.0 Lsize=    9982kB time=00:00:14.20 bitrate=5758.9kbits/s speed=13.2x    
video:9980kB audio:0kB subtitle:0kB other streams:0kB global headers:0kB muxing overhead: 0.023631%
[libx264 @ 0x56c33a8e0fc0] frame I:2     Avg QP:18.00  size:157022
[libx264 @ 0x56c33a8e0fc0] frame P:354   Avg QP:18.62  size: 27980
[libx264 @ 0x56c33a8e0fc0] mb I  I16..4: 100.0%  0.0%  0.0%
[libx264 @ 0x56c33a8e0fc0] mb P  I16..4:  4.3%  0.0%  0.0%  P16..4: 32.7%  0.0%  0.0%  0.0%  0.0%    skip:62.9%
[libx264 @ 0x56c33a8e0fc0] coded y,uvDC,uvAC intra: 43.9% 48.4% 9.4% inter: 9.1% 13.8% 0.1%
[libx264 @ 0x56c33a8e0fc0] i16 v,h,dc,p: 63% 22%  8%  7%
[libx264 @ 0x56c33a8e0fc0] i8c dc,h,v,p: 31% 21% 41%  7%
[libx264 @ 0x56c33a8e0fc0] kb/s:5741.04
ffmpeg version 4.4.2-0ubuntu0.22.04.1 Copyright (c) 2000-2021 the FFmpeg developers
  built with gcc 11 (Ubuntu 11.2.0-19ubuntu1)
  configuration: --prefix=/usr --extra-version=0ubuntu0.22.04.1 --toolchain=hardened --libdir=/usr/lib/x86_64-linux-gnu --incdir=/usr/include/x86_64-linux-gnu --arch=amd64 --enable-gpl --disable-stripping --enable-gnutls --enable-ladspa --enable-libaom --enable-libass --enable-libbluray --enable-libbs2b --enable-libcaca --enable-libcdio --enable-libcodec2 --enable-libdav1d --enable-libflite --enable-libfontconfig --enable-libfreetype --enable-libfribidi --enable-libgme --enable-libgsm --enable-libjack --enable-libmp3lame --enable-libmysofa --enable-libopenjpeg --enable-libopenmpt --enable-libopus --enable-libpulse --enable-librabbitmq --enable-librubberband --enable-libshine --enable-libsnappy --enable-libsoxr --enable-libspeex --enable-libsrt --enable-libssh --enable-libtheora --enable-libtwolame --enable-libvidstab --enable-libvorbis --enable-libvpx --enable-libwebp --enable-libx265 --enable-libxml2 --enable-libxvid --enable-libzimg --enable-libzmq --enable-libzvbi --enable-lv2 --enable-omx --enable-openal --enable-opencl --enable-opengl --enable-sdl2 --enable-pocketsphinx --enable-librsvg --enable-libmfx --enable-libdc1394 --enable-libdrm --enable-libiec61883 --enable-chromaprint --enable-frei0r --enable-libx264 --enable-shared
  libavutil      56. 70.100 / 56. 70.100
  libavcodec     58.134.100 / 58.134.100
  libavformat    58. 76.100 / 58. 76.100
  libavdevice    58. 13.100 / 58. 13.100
  libavfilter     7.110.100 /  7.110.100
  libswscale      5.  9.100 /  5.  9.100
  libswresample   3.  9.100 /  3.  9.100
  libpostproc    55.  9.100 / 55.  9.100
[mov,mp4,m4a,3gp,3g2,mj2 @ 0x604910b26b00] Auto-inserting h264_mp4toannexb bitstream filter
Input #0, concat, from '/opt/mediaserver/temp/simple_list.txt':
  Duration: N/A, start: 0.000000, bitrate: 4057 kb/s
  Stream #0:0(und): Video: h264 (Constrained Baseline) (avc1 / 0x31637661), yuv420p(tv, bt709), 1920x1080, 4057 kb/s, 25 fps, 25 tbr, 12800 tbn, 50 tbc
    Metadata:
      handler_name    : L-SMASH Video Handler
      vendor_id       : [0][0][0][0]
Output #0, hls, to '/opt/mediaserver/hls/playlist.m3u8':
  Metadata:
    encoder         : Lavf58.76.100
  Stream #0:0(und): Video: h264 (Constrained Baseline) (avc1 / 0x31637661), yuv420p(tv, bt709), 1920x1080, q=2-31, 4057 kb/s, 25 fps, 25 tbr, 90k tbn, 25 tbc
    Metadata:
      handler_name    : L-SMASH Video Handler
      vendor_id       : [0][0][0][0]
Stream mapping:
  Stream #0:0 -> #0:0 (copy)
Press [q] to stop, [?] for help
frame=    1 fps=0.0 q=-1.0 size=N/A time=00:00:00.04 bitrate=N/A speed=N/A    [mov,mp4,m4a,3gp,3g2,mj2 @ 0x604910b26b00] Auto-inserting h264_mp4toannexb bitstream filter
[hls @ 0x604910b4fec0] Opening '/opt/mediaserver/hls/segment000.ts' for writing
[hls @ 0x604910b4fec0] Opening '/opt/mediaserver/hls/playlist.m3u8.tmp' for writing
[mov,mp4,m4a,3gp,3g2,mj2 @ 0x604910b26b00] Auto-inserting h264_mp4toannexb bitstream filter
[hls @ 0x604910b4fec0] Opening '/opt/mediaserver/hls/segment001.ts' for writing
[hls @ 0x604910b4fec0] Opening '/opt/mediaserver/hls/playlist.m3u8.tmp' for writing
[hls @ 0x604910b4fec0] Opening '/opt/mediaserver/hls/segment002.ts' for writing
[hls @ 0x604910b4fec0] Opening '/opt/mediaserver/hls/playlist.m3u8.tmp' for writing
[mov,mp4,m4a,3gp,3g2,mj2 @ 0x604910b26b00] Auto-inserting h264_mp4toannexb bitstream filter
[hls @ 0x604910b4fec0] Opening '/opt/mediaserver/hls/segment003.ts' for writing
[hls @ 0x604910b4fec0] Opening '/opt/mediaserver/hls/playlist.m3u8.tmp' for writing
[mov,mp4,m4a,3gp,3g2,mj2 @ 0x604910b26b00] Auto-inserting h264_mp4toannexb bitstream filter
[hls @ 0x604910b4fec0] Opening '/opt/mediaserver/hls/segment004.ts' for writing
[hls @ 0x604910b4fec0] Opening '/opt/mediaserver/hls/playlist.m3u8.tmp' for writing
[hls @ 0x604910b4fec0] Opening '/opt/mediaserver/hls/segment005.ts' for writing
[hls @ 0x604910b4fec0] Opening '/opt/mediaserver/hls/playlist.m3u8.tmp' for writing
frame= 1521 fps=0.0 q=-1.0 Lsize=N/A time=00:01:00.84 bitrate=N/A speed= 763x    
video:36539kB audio:0kB subtitle:0kB other streams:0kB global headers:0kB muxing overhead: unknown
HLS 스트림 생성 완료: Mon Sep  1 18:07:38 KST 2025
